<svg width="34" height="34" viewBox="0 0 34 34" fill="none" xmlns="http://www.w3.org/2000/svg">
<path d="M23.4403 22.3199L11.6804 10.56C11.3711 10.2507 10.8038 10.3166 10.4133 10.7071C10.0227 11.0976 9.95687 11.6649 10.2661 11.9742L22.026 23.7341C22.3353 24.0434 22.9026 23.9775 23.2931 23.587C23.6837 23.1965 23.7495 22.6292 23.4403 22.3199Z" fill="#222222"/>
<path d="M22.3204 10.5605L10.5605 22.3204C10.2512 22.6297 10.3171 23.197 10.7076 23.5875C11.0981 23.978 11.6654 24.0439 11.9747 23.7346L23.7346 11.9747C24.0439 11.6654 23.978 11.0981 23.5875 10.7076C23.197 10.3171 22.6297 10.2512 22.3204 10.5605Z" fill="#222222"/>
</svg>
