<svg width="32" height="32" viewBox="0 0 32 32" fill="none" xmlns="http://www.w3.org/2000/svg">
<rect width="32" height="32" rx="16" fill="#222222"/>
<path d="M17.6357 18.1163C16.8152 17.9537 16.0504 17.5823 15.4151 17.0382C14.7799 16.4941 14.2957 15.7956 14.009 15.0099C13.9592 14.6945 13.9864 14.3718 14.0886 14.0693C14.1907 13.7668 14.3646 13.4934 14.5955 13.2728C14.7359 13.0769 14.8115 12.842 14.8115 12.601C14.8115 12.36 14.7359 12.125 14.5955 11.9292C14.0596 11.1944 13.4564 10.5114 12.7935 9.88881C12.5554 9.76368 12.2848 9.71325 12.0176 9.74425C11.7504 9.77526 11.4986 9.88611 11.2955 10.0624C10.4705 10.6707 9.05608 11.777 10.1014 14.0997C11.1468 16.4223 13.809 19.983 16.8707 21.4806C19.9324 22.9783 20.5937 22.1247 20.5937 22.1247C20.8943 21.9017 21.1791 21.6587 21.447 21.3973C21.6666 21.1826 21.866 20.9481 22.0427 20.6969C22.0427 20.6969 22.607 19.7465 22.0427 19.1168C21.4784 18.4871 20.3759 17.0261 19.4604 17.3369C19.2043 17.4265 18.7797 17.8018 18.2852 18.0105C18.0796 18.0948 17.8574 18.1311 17.6357 18.1163Z" stroke="white" stroke-width="1.5"/>
</svg>
