<svg width="32" height="32" viewBox="0 0 32 32" fill="none" xmlns="http://www.w3.org/2000/svg">
<rect width="32" height="32" rx="16" fill="#222222"/>
<path d="M16 22.249C19.4518 22.249 22.25 19.4508 22.25 15.999C22.25 12.5472 19.4518 9.74902 16 9.74902C12.5482 9.74902 9.75 12.5472 9.75 15.999C9.75 19.4508 12.5482 22.249 16 22.249Z" stroke="white" stroke-width="1.5"/>
<path d="M17.05 13.2481C17.05 12.8776 16.7496 12.5771 16.379 12.5771C16.0084 12.5771 15.708 12.8776 15.708 13.2481V16.6471C15.708 17.0177 16.0084 17.3181 16.379 17.3181C16.7496 17.3181 17.05 17.0177 17.05 16.6471V13.2481Z" fill="white"/>
<path d="M16.379 17.3181C16.7496 17.3181 17.05 17.0177 17.05 16.6471C17.05 16.2765 16.7496 15.9761 16.379 15.9761H13.249C12.8785 15.9761 12.578 16.2765 12.578 16.6471C12.578 17.0177 12.8785 17.3181 13.249 17.3181H16.379Z" fill="white"/>
</svg>
