<svg width="34" height="34" viewBox="0 0 34 34" fill="none" xmlns="http://www.w3.org/2000/svg">
<rect width="34" height="34" rx="17" fill="white"/>
<path d="M23.4401 22.3199L11.6802 10.56C11.371 10.2507 10.8037 10.3166 10.4131 10.7071C10.0226 11.0976 9.95674 11.6649 10.266 11.9742L22.0259 23.7341C22.3352 24.0434 22.9025 23.9775 23.293 23.587C23.6835 23.1965 23.7494 22.6292 23.4401 22.3199Z" fill="#222222"/>
<path d="M22.3204 10.5604L10.5605 22.3203C10.2512 22.6295 10.3171 23.1968 10.7076 23.5874C11.0981 23.9779 11.6654 24.0437 11.9747 23.7345L23.7346 11.9746C24.0439 11.6653 23.978 11.098 23.5875 10.7075C23.197 10.3169 22.6297 10.2511 22.3204 10.5604Z" fill="#222222"/>
</svg>
