<svg width="24" height="24" viewBox="0 0 24 24" fill="none" xmlns="http://www.w3.org/2000/svg">
<path d="M20.1317 18.7175L5.28242 3.86824C4.8919 3.47772 4.25873 3.47772 3.86821 3.86824C3.47769 4.25876 3.47769 4.89193 3.86821 5.28245L18.7175 20.1317C19.108 20.5222 19.7411 20.5222 20.1317 20.1317C20.5222 19.7412 20.5222 19.108 20.1317 18.7175Z" fill="#222222"/>
<path d="M18.7176 3.86846L3.86836 18.7177C3.47784 19.1082 3.47784 19.7414 3.86836 20.1319C4.25889 20.5224 4.89205 20.5224 5.28258 20.1319L20.1318 5.28267C20.5223 4.89215 20.5223 4.25898 20.1318 3.86846C19.7413 3.47793 19.1081 3.47793 18.7176 3.86846Z" fill="#222222"/>
</svg>
