<svg width="129" height="54" viewBox="0 0 129 54" fill="none" xmlns="http://www.w3.org/2000/svg">
<path d="M25.176 22.8037H22.9324C19.9917 30.5388 17.9804 35.6449 16.5987 39.2721L8.69388 22.8037H6.85981L0.954102 46.9403H3.05717L6.70085 32.0116L13.8354 46.9403H15.8345L21.5935 31.9569L24.5097 46.9403H30.4765L25.176 22.7976V22.8037Z" fill="#D90833"/>
<path d="M63.3367 36.1073C63.5996 36.0343 63.8625 35.9491 64.1192 35.8517C66.6503 34.8901 68.9 33.5391 68.9 30.5083C68.9 30.4596 68.9 30.417 68.9 30.3683C68.9 30.3197 68.9 30.271 68.9 30.2223C68.9 28.9199 68.3987 27.6662 67.5551 26.6803C66.6931 25.6761 65.6232 25.0067 64.4433 24.5563C61.9 23.5948 58.8432 23.6008 56.2572 23.6374H50.0947V47.8592H56.0493V37.0871H57.2293L63.3978 47.8592H72.4215V45.8386H69.1079C67.2066 42.6375 64.1743 37.5314 63.3306 36.0952L63.3367 36.1073ZM60.286 34.5615C59.5952 34.8901 58.831 35.0119 58.0729 35.0606C57.914 35.0727 56.5079 35.1032 56.0493 35.091V25.7552C56.7707 25.7492 57.5166 25.7066 58.2441 25.7492C58.9777 25.7978 59.693 25.9317 60.3533 26.303C61.8205 27.1307 62.7131 28.7556 62.7131 30.4231C62.7131 32.0906 61.8511 33.819 60.286 34.5615Z" fill="#D90833"/>
<path d="M110.393 29.7781L108.571 31.7925H115.547V53.9938H121.501V31.7925H121.508H128.477V29.7781H110.393Z" fill="#D90833"/>
<path d="M99.8043 36.2778H107.208L109.042 34.2634H99.8043V25.658H110.852V23.6375H93.7764V47.8714H110.87V45.8326H99.8043V36.2778Z" fill="#D90833"/>
<path d="M38.5705 29.7781L28.96 53.9999H31.1364L33.9242 46.9463H41.8168L44.733 53.9999H51.2867L40.698 29.7781H38.5705ZM34.7128 44.9258L37.7818 37.1785L40.9976 44.9258H34.7128Z" fill="#D90833"/>
<path d="M80.7488 42.5462L92.3156 29.7781H89.6012L79.5566 40.9091L79.5933 29.7781H73.6387V53.9938H79.5933V42.9783L87.6632 53.9938H94.975L86.5505 42.5462H80.7488Z" fill="#D90833"/>
<path d="M54.5938 14.6243C54.5144 15.6468 53.9274 18.3428 52.9065 18.3428C52.5397 18.3428 52.1423 17.3873 52.1423 15.0625C52.1423 14.2531 52.1973 13.2672 52.2829 12.3787C54.2759 10.0356 55.0523 6.72488 55.0523 5.03909C55.0523 3.93755 54.6794 3.54196 54.227 3.54196C53.848 3.54196 53.4322 3.77931 53.0288 4.22967C51.7021 5.64768 50.9807 8.89145 50.7301 11.5145C50.51 11.3197 50.2471 11.2163 49.9536 11.2163C49.0916 11.2284 48.2724 11.8492 47.661 12.9568C47.123 13.9245 46.8113 15.2938 46.8113 16.4075C46.8113 16.7422 46.8418 17.0465 46.8907 17.3265C46.6278 17.9351 46.2977 18.3915 45.9126 18.3915C45.503 18.3915 45.1545 17.3508 45.0933 15.6407C45.882 14.2835 48.089 9.71304 48.0645 5.00257C48.0584 3.63325 47.4287 3.52979 47.2086 3.52979C45.1361 3.52979 43.6628 8.95839 43.6016 13.8332C43.6016 14.813 43.6689 15.6833 43.7912 16.4258C43.4182 17.5091 42.7763 18.3732 41.8593 18.3732C40.5754 18.3732 40.5082 16.8822 40.4715 16.0606C41.9021 15.2816 42.9475 13.8332 42.9475 12.4273C42.9475 11.6666 42.6174 11.2163 41.951 11.2163C40.2208 11.2163 38.6986 13.7236 38.8331 16.3223C38.8453 16.5171 38.8697 16.7057 38.9003 16.8822C38.9003 16.8944 38.8942 16.9126 38.8881 16.9248C38.6924 17.4725 38.4968 18.1968 37.8916 18.1968C37.7326 18.1968 36.9929 17.9472 37.4086 15.452C37.592 14.3566 37.7937 13.3098 38.2645 11.7762C38.3012 11.6544 38.3562 11.2954 37.7632 11.2284C37.2985 11.1737 36.7667 11.3258 36.5588 11.977C36.2898 12.8412 36.033 13.8697 35.868 14.8313C35.8435 14.9895 35.8191 15.1538 35.7946 15.3242C35.4889 17.6551 33.3492 18.1359 32.8723 17.5638L33.068 15.9328C34.7492 13.9184 36.8339 9.65218 36.7972 5.04518C36.785 3.7428 36.1798 3.55414 35.9597 3.55414C33.4531 3.52371 32.0164 9.95648 31.3562 16.0728C31.2339 16.4684 31.0811 16.8153 30.8854 17.1196C30.2618 18.0507 29.8583 18.1481 29.7055 18.1481C29.571 18.1481 29.3142 18.1481 29.3142 17.4238C29.3142 16.6996 29.5465 15.9693 29.8094 14.9834C30.0356 14.1557 30.2252 13.0968 30.2252 12.6769C30.2252 11.7153 29.7972 11.2345 28.9596 11.2406C28.7824 11.2406 28.5134 11.2771 28.2077 11.3197C27.8775 11.3684 27.5046 11.4597 27.2478 11.4658C27.0461 10.7355 26.7588 10.419 26.3797 10.4251C25.9762 10.4251 25.6583 10.7902 25.6583 11.2589C25.6583 11.8614 26.2391 12.2326 26.7343 12.2813C26.7893 12.6221 26.8077 13.0907 26.8077 13.5897C26.8077 14.9834 26.5203 16.6327 26.0496 17.4725C26.0496 17.4786 26.0496 17.4847 26.0435 17.4969C25.8112 17.9229 25.4933 18.3246 25.0959 18.3246C24.7413 18.3246 24.6129 17.7281 24.6129 17.2169C24.6129 16.4684 24.7291 15.4885 24.8269 14.6243C24.9063 13.961 24.9614 13.3889 24.9675 13.042C24.9797 12.4699 24.5701 12.1109 23.9893 12.1535C23.9221 12.1535 23.8609 12.1717 23.7998 12.1778C23.543 11.5632 23.1028 11.2102 22.5771 11.2102C21.6967 11.2102 20.8653 11.837 20.2417 12.9751C19.6976 13.961 19.3736 15.2268 19.3736 16.3588C19.3736 16.6631 19.398 16.9492 19.4408 17.2108C19.2024 17.7281 18.805 18.3185 18.322 18.3185C18.1631 18.3185 17.6495 18.2637 17.6495 15.732C17.6495 14.2166 17.9369 12.3787 18.1753 11.0945C19.7282 10.9728 21.171 10.1938 22.0085 9.45135C22.2042 9.26877 22.2469 9.0862 22.2042 8.97057C22.1369 8.7819 21.8618 8.73322 21.5683 8.91579C20.2723 9.70696 18.805 9.98082 18.4137 9.94431C18.6705 8.47152 19.0679 7.08394 19.2024 6.73096C19.2452 6.62142 19.2268 6.4997 19.1351 6.42667C19.129 6.42667 19.1229 6.4145 19.1046 6.40233C19.0068 6.3293 18.6583 6.12238 18.3343 6.12238C17.9736 6.12238 17.6801 6.36581 17.5456 6.77356C17.4356 7.1022 17.1543 8.1368 16.812 9.84085C16.2129 9.79825 15.5648 9.53655 15.1736 9.23226C14.8373 8.97057 14.6784 8.75147 14.4827 9.04968C14.281 9.35398 14.2871 9.98691 14.7823 10.3947C15.198 10.7416 15.9316 11.0154 16.5858 11.0702C16.2434 13.4619 16.1701 14.5026 16.1701 15.5798C16.1701 16.657 16.2251 19.28 18.0714 19.28C18.805 19.28 19.343 18.8175 19.7343 18.1785C20.1011 18.8845 20.7124 19.28 21.5317 19.28C22.2042 19.28 22.7911 18.8297 23.2557 17.9716C23.488 18.7019 24.026 19.28 24.8391 19.28C25.7072 19.28 26.288 18.641 26.6793 17.8316C26.6793 17.8255 26.6915 17.8194 26.6976 17.8073C26.9972 17.2108 27.1806 16.4866 27.2968 15.7867C27.4374 14.9895 27.4679 14.2531 27.4679 13.6323C27.4679 13.1881 27.4374 12.7256 27.3823 12.2813C27.5474 12.2691 27.7186 12.2569 27.902 12.2387C28.171 12.2143 28.4522 12.1839 28.7212 12.1839C28.7334 12.1839 28.7334 12.2326 28.7334 12.2813C28.7334 12.7682 28.5561 13.5897 28.3116 14.4661C28.0243 15.5068 27.7614 17.0648 27.7614 17.6125C27.7614 19.0062 28.4644 19.2983 29.1064 19.2983C29.7911 19.2983 30.5369 18.8236 31.1422 18.0446C30.8793 21.1788 30.8243 24.0209 30.9343 25.5911C31.0383 27.0882 31.1911 29.6504 32.4688 29.8269C34.1073 30.052 35.1649 26.8935 35.1405 23.3211C35.1282 21.0997 34.3946 19.2496 33.0802 18.5011C33.7894 18.7323 34.9448 18.282 35.7151 17.29C35.8313 18.4098 36.2898 19.28 37.4086 19.28C38.2523 19.28 38.8269 18.6836 39.2182 17.9107C39.6767 18.781 40.5021 19.28 41.6269 19.28C42.7518 19.28 43.516 18.5923 44.0357 17.6003C44.3781 18.6715 44.9099 19.28 45.6252 19.28C46.2488 19.28 46.7257 18.8662 47.1536 18.1968C47.5143 18.8966 48.1196 19.2861 48.9204 19.2861C49.7213 19.2861 50.4794 18.5437 50.9501 17.2595C51.2925 18.5923 51.8672 19.2861 52.6497 19.2861C53.4995 19.2861 54.1659 18.6775 54.6305 17.4725C55.0095 16.4927 55.1318 15.239 55.1868 14.6548C55.2235 14.1862 54.6122 14.0949 54.5694 14.6183L54.5938 14.6243ZM53.9091 4.80174C54.1353 4.38181 54.3065 4.41224 54.3065 5.08169C54.3065 6.39015 53.7135 8.92797 52.4296 10.9972C52.7781 8.28286 53.3589 5.83025 53.903 4.80174H53.9091ZM46.8968 4.79565C47.0864 4.44267 47.337 4.38181 47.337 5.0756C47.337 7.00483 46.4506 10.845 45.1056 14.174C45.3929 8.31329 46.3833 5.75114 46.8968 4.79565ZM41.9571 12.0561C42.0916 12.0561 42.1099 12.2935 42.1099 12.3482C42.1222 13.1881 41.4863 14.5148 40.4837 15.239C40.6121 13.4133 41.3824 12.0561 41.951 12.0561H41.9571ZM35.5562 4.75305C35.7335 4.35747 36.033 4.3027 36.0636 4.98432C36.192 7.97857 34.7431 12.4456 33.1658 14.6122C33.9789 8.55673 35.1038 5.75722 35.5562 4.74697V4.75305ZM23.2618 15.0443C23.2312 15.3364 23.2068 15.6346 23.1823 15.9389C22.9622 17.1013 22.4487 18.3367 21.66 18.3367C21.3727 18.3367 21.0793 17.6551 21.0793 16.3527C21.0793 13.888 21.9168 11.9831 22.6443 11.9831C22.95 11.9831 23.2924 12.7073 23.3474 13.9245C23.3352 14.2835 23.2985 14.6548 23.2618 15.0443ZM34.2662 24.8547C33.9667 27.4473 33.4409 28.9627 32.8173 28.9201C32.4994 28.8957 32.3038 28.628 32.2793 27.1308C32.2182 23.5828 32.7256 19.0488 32.7256 19.0488C34.3029 20.0529 34.5291 22.5603 34.2723 24.8608L34.2662 24.8547ZM49.0488 18.3611C48.7615 18.3611 48.4741 17.6916 48.4741 16.4075C48.4741 13.9853 49.2995 11.977 50.0148 11.977C50.2899 11.977 50.5222 12.4639 50.6322 13.2429V13.7419C50.6322 14.1557 50.6322 14.7095 50.6567 15.0869C50.5222 16.6631 49.9659 18.355 49.0488 18.355V18.3611ZM37.4025 9.18357C37.4025 9.15314 37.4269 9.1288 37.4575 9.1288C38.5029 9.1288 39.1143 8.47152 39.1143 7.47344C39.1143 7.44301 39.1387 7.41867 39.1693 7.41867C39.1999 7.41867 39.2243 7.44301 39.2243 7.47344C39.2243 8.47761 39.8357 9.1288 40.8811 9.1288C40.9117 9.1288 40.9361 9.15314 40.9361 9.18357C40.9361 9.214 40.9117 9.23835 40.8811 9.23835C39.8357 9.23835 39.2243 9.85302 39.2243 10.8937C39.2243 10.9241 39.1999 10.9485 39.1693 10.9485C39.1387 10.9485 39.1143 10.9241 39.1143 10.8937C39.1143 9.86519 38.5029 9.23835 37.4575 9.23835C37.4269 9.23835 37.4025 9.214 37.4025 9.18357ZM13.4556 10.7233C16.9343 15.9206 13.2478 21.4101 7.14033 21.4101C1.41192 21.4101 -1.16801 17.3386 0.513221 14.5026C1.11846 13.4863 2.55515 12.6708 3.64337 12.4943C3.82066 12.4639 3.9307 12.4943 3.97961 12.5856C4.01629 12.6586 3.97961 12.7316 3.84511 12.829C3.41105 13.1455 2.83638 13.8575 2.54292 14.4661C1.36301 16.9187 2.56738 20.3816 6.88967 20.3816C10.9063 20.3816 13.8653 16.584 11.0714 12.1048C9.04165 8.86102 6.02154 5.16081 9.76305 1.61883C12.5936 -1.05896 18.0469 -0.194765 17.7779 2.55605C17.6679 3.65151 16.3229 5.17907 16.2129 5.28253C16.0417 5.44076 15.8033 5.22167 15.9316 5.02083C16.8426 3.59065 16.2557 2.30653 15.6015 1.7588C14.446 0.791147 12.3858 0.693773 11.0714 1.77706C8.03291 4.28444 11.7438 8.14897 13.4679 10.7172L13.4556 10.7233Z" fill="#D90833"/>
</svg>
