<svg width="131" height="24" viewBox="0 0 131 24" fill="none" xmlns="http://www.w3.org/2000/svg">
<g clip-path="url(#clip0_62_4087)">
<path d="M40.1304 12.9074C40.0723 13.6508 39.6467 15.6191 38.9075 15.6191C38.6397 15.6191 38.3531 14.9215 38.3531 13.2251C38.3531 12.6334 38.3946 11.915 38.4569 11.2692C39.9021 9.56251 40.4647 7.14568 40.4647 5.9165C40.4647 5.11297 40.1927 4.82644 39.8626 4.82644C39.5865 4.82644 39.2833 5.00085 38.9926 5.3289C38.0292 6.36291 37.506 8.7299 37.3254 10.6401C37.1634 10.4968 36.9745 10.4242 36.7627 10.4242C36.1356 10.4325 35.5439 10.883 35.0975 11.6949C34.7092 12.3987 34.4787 13.3995 34.4787 14.2093C34.4787 14.4522 34.4995 14.6765 34.5369 14.882C34.3458 15.3243 34.105 15.6565 33.8288 15.6565C33.5299 15.6565 33.2807 14.8986 33.2371 13.6508C33.8102 12.6624 35.4131 9.32581 35.3944 5.89574C35.3881 4.89703 34.9334 4.82021 34.7736 4.82021C33.2682 4.82021 32.1989 8.77974 32.1533 12.3344C32.1553 13.0486 32.2031 13.684 32.2903 14.2259C32.0204 15.0149 31.5553 15.6482 30.8888 15.6482C29.9544 15.6482 29.9067 14.5581 29.8818 13.9622C30.9199 13.3954 31.6819 12.3385 31.6819 11.3128C31.6819 10.7564 31.4411 10.4283 30.9573 10.4283C29.7032 10.4283 28.5945 12.2576 28.6962 14.1491C28.7045 14.2923 28.7211 14.4273 28.7439 14.5581C28.7419 14.5685 28.7377 14.5789 28.7336 14.5893C28.5924 14.9858 28.447 15.5153 28.011 15.5153C27.8968 15.5153 27.357 15.3326 27.658 13.5117C27.793 12.7123 27.9383 11.9503 28.2789 10.8311C28.3058 10.7398 28.3453 10.4802 27.9155 10.4304C27.5791 10.391 27.1929 10.501 27.0414 10.9786C26.8441 11.6077 26.6593 12.3572 26.541 13.059C26.5223 13.1774 26.5036 13.2957 26.4891 13.4182C26.2648 15.1187 24.7138 15.4675 24.3671 15.0502L24.5083 13.8605C25.7291 12.3904 27.2407 9.28013 27.2158 5.92065C27.2075 4.9697 26.7652 4.83267 26.6053 4.83267C24.7844 4.80775 23.7421 9.50022 23.2625 13.9601C23.1753 14.2487 23.0611 14.5041 22.9199 14.7242C22.4673 15.4032 22.1724 15.4758 22.0645 15.4758C21.9669 15.4758 21.78 15.4758 21.78 14.9485C21.78 14.4211 21.9461 13.8875 22.1392 13.167C22.3012 12.5649 22.4423 11.7925 22.4423 11.4831C22.4423 10.7813 22.133 10.4304 21.5246 10.4366C21.3938 10.4366 21.2007 10.4657 20.9785 10.4948C20.7418 10.528 20.4678 10.5986 20.283 10.6007C20.1356 10.0712 19.9279 9.83866 19.6497 9.84073C19.3569 9.84488 19.1265 10.1086 19.1265 10.4491C19.1265 10.8893 19.55 11.1592 19.9092 11.1945C19.9487 11.4436 19.9632 11.7842 19.9632 12.1496C19.9632 13.167 19.7577 14.3692 19.413 14.9817C19.4109 14.9858 19.4109 14.9921 19.4088 14.9962C19.2427 15.3077 19.0102 15.6004 18.7237 15.6004C18.4641 15.6004 18.3707 15.1665 18.3707 14.7948C18.3707 14.2508 18.4537 13.5345 18.5285 12.9033C18.5846 12.4195 18.6261 12.0001 18.6323 11.7509C18.6427 11.3315 18.3458 11.0699 17.9222 11.1031C17.8745 11.1052 17.8309 11.1177 17.7831 11.1218C17.5962 10.6713 17.2786 10.4159 16.8986 10.4159C16.2591 10.4159 15.657 10.8727 15.2022 11.7032C14.8098 12.4216 14.5731 13.3435 14.5731 14.1698C14.5731 14.3941 14.5918 14.5996 14.6229 14.7927C14.4506 15.1686 14.1641 15.6025 13.8111 15.6025C13.6969 15.6025 13.3232 15.561 13.3232 13.7151C13.3232 12.6085 13.5329 11.2692 13.7073 10.3349C14.8368 10.2456 15.8791 9.68086 16.4896 9.13686C16.6287 9.00605 16.6619 8.87109 16.6287 8.78389C16.5788 8.64685 16.3795 8.61156 16.1677 8.74444C15.2251 9.32165 14.1599 9.52306 13.8796 9.49606C14.0665 8.42261 14.3572 7.41145 14.4527 7.15191C14.4818 7.07301 14.4693 6.98373 14.4029 6.93182C14.3987 6.92974 14.3925 6.92351 14.3821 6.91521C14.3136 6.8633 14.0561 6.71173 13.8236 6.70965C13.5599 6.70965 13.346 6.88614 13.2526 7.18305C13.1716 7.4239 12.9681 8.17761 12.7231 9.41924C12.2871 9.39017 11.8199 9.19707 11.5355 8.97283C11.2925 8.78389 11.1763 8.62401 11.0351 8.83995C10.8877 9.06004 10.896 9.52513 11.2552 9.82205C11.5583 10.0754 12.0878 10.2768 12.5632 10.3141C12.3141 12.0562 12.2601 12.8161 12.2601 13.603C12.2601 14.3899 12.3016 16.3022 13.6409 16.3022C14.1745 16.3022 14.5669 15.9638 14.8493 15.4987C15.113 16.0136 15.5614 16.3022 16.1532 16.3022C16.6411 16.3022 17.0668 15.9742 17.4052 15.3471C17.5755 15.8807 17.9637 16.3022 18.5534 16.3022C19.1825 16.3022 19.604 15.8371 19.8885 15.2433C19.8926 15.2371 19.8989 15.2329 19.903 15.2246C20.121 14.7886 20.2539 14.2591 20.337 13.7504C20.4408 13.1711 20.4615 12.6313 20.4615 12.1766C20.4615 11.8527 20.4408 11.5163 20.4013 11.1924C20.5218 11.1841 20.6463 11.1737 20.7771 11.1613C20.9744 11.1426 21.1758 11.1239 21.371 11.1197C21.3813 11.1197 21.3813 11.1571 21.3813 11.1924C21.3813 11.5475 21.2505 12.1496 21.0761 12.787C20.8685 13.5449 20.6775 14.6827 20.6775 15.0834C20.6775 16.1008 21.1862 16.3126 21.6533 16.3126C22.1496 16.3126 22.6915 15.9679 23.1296 15.3969C22.9407 17.683 22.9012 19.7572 22.978 20.9012C23.0528 21.9913 23.1628 23.86 24.093 23.9887C25.2807 24.1507 26.0489 21.8501 26.0323 19.2444C26.0219 17.6248 25.4883 16.2731 24.5373 15.7312C25.0523 15.9015 25.889 15.5714 26.4517 14.8488C26.5368 15.6648 26.867 16.3001 27.683 16.3001C28.2955 16.3001 28.7128 15.8641 28.9952 15.3014C29.3295 15.9347 29.9295 16.3001 30.7414 16.3001C31.5532 16.3001 32.1117 15.7977 32.4917 15.0751C32.7388 15.8579 33.125 16.3001 33.6461 16.3001C34.0988 16.3001 34.4455 15.9991 34.7549 15.5111C35.0144 16.0198 35.4546 16.3043 36.036 16.3043C36.6173 16.3043 37.1696 15.7645 37.5081 14.826C37.7551 15.7956 38.1746 16.3043 38.7414 16.3043C39.3601 16.3043 39.8439 15.86 40.1803 14.9817C40.4564 14.2654 40.5457 13.3518 40.5831 12.9282C40.6101 12.5877 40.1657 12.5213 40.1367 12.9012L40.1304 12.9074ZM39.6321 5.74624C39.7962 5.43895 39.9228 5.46387 39.9228 5.94972C39.9228 6.90275 39.493 8.7569 38.5628 10.2643C38.8141 8.28557 39.2376 6.49579 39.6321 5.74624ZM34.541 5.74209C34.6781 5.48255 34.8587 5.4431 34.8587 5.94765C34.8587 7.35539 34.2171 10.1563 33.2392 12.5815C33.4489 8.30634 34.1694 6.44181 34.5389 5.74209H34.541ZM30.9531 11.0367C31.0487 11.0367 31.0632 11.209 31.0653 11.2505C31.0757 11.8651 30.6147 12.8327 29.888 13.358C29.9814 12.025 30.542 11.0367 30.9552 11.0367H30.9531ZM26.3064 5.71095C26.4351 5.42442 26.6531 5.38497 26.6739 5.8812C26.7652 8.06341 25.7146 11.3211 24.5726 12.9033C25.1644 8.48905 25.9804 6.44804 26.3084 5.71095H26.3064ZM17.3803 13.2168C17.3595 13.4286 17.3388 13.6487 17.3242 13.8709C17.1644 14.718 16.7927 15.6212 16.2217 15.6212C16.012 15.6212 15.8002 15.1229 15.8002 14.1719C15.8002 12.3759 16.4086 10.9848 16.936 10.9848C17.1581 10.9848 17.4073 11.5122 17.4447 12.3987C17.4343 12.6604 17.4073 12.9303 17.3803 13.2168ZM25.3699 20.3718C25.154 22.2633 24.7699 23.3679 24.3152 23.3347C24.0847 23.316 23.9456 23.1229 23.9269 22.0287C23.8812 19.4437 24.2487 16.134 24.2487 16.134C25.3949 16.8691 25.5568 18.6941 25.3699 20.3739V20.3718ZM36.1003 15.6357C35.8948 15.6357 35.6851 15.1478 35.6851 14.2114C35.6851 12.4444 36.2851 10.9786 36.8021 10.9786C37.0014 10.9786 37.1717 11.3336 37.2527 11.9046V12.27C37.2527 12.5711 37.2527 12.976 37.2693 13.2521C37.1717 14.4024 36.7668 15.6378 36.1003 15.6378V15.6357ZM27.6477 8.94377C27.6477 8.92093 27.6643 8.90224 27.6892 8.90224C28.4491 8.90224 28.8934 8.42469 28.8934 7.69382C28.8934 7.67306 28.9121 7.65438 28.935 7.65438C28.9578 7.65438 28.9744 7.67306 28.9744 7.69382C28.9744 8.42676 29.4188 8.90224 30.1787 8.90224C30.1994 8.90224 30.2181 8.92093 30.2181 8.94377C30.2181 8.9666 30.1994 8.98529 30.1787 8.98529C29.4188 8.98529 28.9744 9.43377 28.9744 10.1937C28.9744 10.2165 28.9578 10.2332 28.935 10.2332C28.9121 10.2332 28.8934 10.2165 28.8934 10.1937C28.8934 9.44623 28.4491 8.98529 27.6892 8.98529C27.6663 8.98529 27.6477 8.9666 27.6477 8.94584V8.94377ZM10.2648 10.067C12.7916 13.8563 10.1111 17.8615 5.68027 17.8615C1.52349 17.8615 -0.353494 14.8924 0.867378 12.8244C1.30548 12.0811 2.34987 11.4893 3.13886 11.3606C3.2676 11.3398 3.34857 11.3606 3.38179 11.427C3.40878 11.4789 3.38179 11.5329 3.28421 11.6035C2.97068 11.8319 2.54919 12.351 2.33741 12.7953C1.48404 14.583 2.35609 17.1078 5.4934 17.1078C8.40647 17.1078 10.5575 14.3401 8.52897 11.0741C7.05687 8.70707 4.8622 6.00994 7.57802 3.427C9.63149 1.47319 13.5931 2.10439 13.3958 4.11219C13.3169 4.90949 12.3411 6.02239 12.2601 6.09922C12.1335 6.21549 11.9632 6.05561 12.0546 5.91027C12.7169 4.86589 12.2892 3.93155 11.8158 3.53289C10.9769 2.82695 9.47992 2.75428 8.52897 3.54535C6.32185 5.37251 9.01483 8.19006 10.2668 10.067H10.2648Z" fill="#D90833"/>
<path d="M59.0915 -0.00292969H57.5426C55.5099 5.36642 54.1208 8.91483 53.1637 11.4334L47.7009 -0.00292969H46.4323L42.3481 16.7591L43.8016 16.7633L46.3222 6.39419L51.2534 16.7633H52.6363L56.6145 6.35889L58.6306 16.7633H62.7541L59.0915 -0.00292969Z" fill="#D90833"/>
<path d="M85.469 9.23688C85.6518 9.18498 85.8324 9.12476 86.0089 9.0604C87.7592 8.39183 89.3123 7.45748 89.3123 5.35003C89.3123 5.31681 89.3102 5.28359 89.3102 5.25244C89.3102 5.21714 89.3123 5.18392 89.3123 5.1507C89.3123 4.2475 88.9656 3.37753 88.3821 2.69235C87.7883 1.99678 87.0491 1.52961 86.2331 1.22024C84.4766 0.551668 82.3629 0.555821 80.5731 0.582813H76.3125V17.403H80.4298V9.92207H81.2458L85.5106 17.403H91.7499V16.0015H89.4618C88.1475 13.7757 86.0525 10.2335 85.469 9.23688ZM83.3616 8.16551C82.884 8.39182 82.3546 8.47695 81.8313 8.51225C81.7192 8.52056 80.7517 8.54132 80.4319 8.53509V2.05284C80.9302 2.04661 81.4472 2.01754 81.9518 2.04661C82.4584 2.07983 82.9525 2.17534 83.4073 2.43073C84.4226 3.00379 85.0392 4.13331 85.0392 5.29189C85.0392 6.45047 84.4454 7.64851 83.3616 8.16343V8.16551Z" fill="#D90833"/>
<path d="M117.998 4.83887L116.74 6.24245H121.561V21.6549H125.679V6.24245H130.5V4.83887H117.998Z" fill="#D90833"/>
<path d="M110.677 9.35482H115.795L117.062 7.95331H110.677V1.97768H118.314V0.576172H106.512V17.4047H118.328V15.9907H110.677V9.35482Z" fill="#D90833"/>
<path d="M68.3496 4.83887L61.7075 21.6612H63.2128L65.1397 16.7631H70.5962L72.6102 21.6612H77.1387L69.8197 4.83887H68.3496ZM65.6837 15.3575L67.8077 9.97982L70.0294 15.3575H65.6857H65.6837Z" fill="#D90833"/>
<path d="M97.5035 13.7068L105.501 4.83887H103.627L96.6834 12.5711L96.7083 4.83887H92.5889V21.6549H96.7083V14.0079L102.285 21.6549H107.341L101.515 13.7068H97.5035Z" fill="#D90833"/>
</g>
<defs>
<clipPath id="clip0_62_4087">
<rect width="130" height="24.0063" fill="white" transform="translate(0.5 -0.00292969)"/>
</clipPath>
</defs>
</svg>
